<?xml version="1.0" encoding="utf-8"?>
<!-- Generator: Adobe Illustrator 19.1.0, SVG Export Plug-In . SVG Version: 6.00 Build 0)  -->
<svg version="1.1" id="Calque_1" xmlns="http://www.w3.org/2000/svg" xmlns:xlink="http://www.w3.org/1999/xlink" x="0px" y="0px"
	 viewBox="0 0 283.5 283.5" style="enable-background:new 0 0 283.5 283.5;" xml:space="preserve">
<style type="text/css">
	.st0{fill:#EC6625;}
	.st1{fill:#FFFFFF;}
	.st2{fill:none;stroke:#EC6625;stroke-width:2.0378;stroke-miterlimit:10;}
	.st3{fill:#FFFFFF;stroke:#EC6625;stroke-width:2.0378;stroke-miterlimit:10;}
</style>
<g>
	<g id="XMLID_51_">
		<polygon class="st0" points="189.3,165.5 189.3,105.2 113.1,105.2 113.1,181.4 174.4,181.4 174.4,181.4 177.1,181.4 189.3,169.7 
			189.3,165.5 		"/>
		<polygon class="st0" points="189.3,165.5 189.3,165.5 189.3,169.7 189.3,169.7 		"/>
		<polygon class="st0" points="174.4,181.4 177.1,181.4 177.1,181.4 174.4,181.4 		"/>
		<g>
			<polygon class="st0" points="177.1,169.7 177.1,181.4 177.1,181.4 189.3,169.7 189.3,169.7 			"/>
			<polygon class="st0" points="189.3,169.7 189.3,169.7 189.3,169.7 			"/>
			<polygon class="st0" points="177.1,181.4 177.1,181.4 177.1,181.4 			"/>
			<path class="st1" d="M176.1,168.7l0,12.7l2.5,0l10.8-10.3l0-2.4L176.1,168.7z M178.1,179.1v-8.4h8.7L178.1,179.1z"/>
		</g>
	</g>
	<g>
		<polygon class="st1" points="132.2,168 168.6,168 168.6,118.8 143.1,118.8 132.2,129.6 		"/>
		<polyline class="st2" points="130.4,129.6 143.7,129.6 143.7,117.3 		"/>
		<line class="st2" x1="140.3" y1="135.9" x2="161.5" y2="135.9"/>
		<line class="st2" x1="140.3" y1="144.3" x2="161.5" y2="144.3"/>
		<line class="st2" x1="140.3" y1="152.7" x2="161.5" y2="152.7"/>
	</g>
	<polygon class="st3" points="154.2,159.4 154.2,162.6 157.3,162.2 181.7,137.4 178.6,134.4 	"/>
</g>
</svg>
